name rise37.2698peak67.6939fall79.5734.mot
datacolumns 19
datarows 33
range 17.65828200000000 17.71161900000000
endheader
time	ground_force1_vx	ground_force1_vy	ground_force1_vz	ground_force1_px	ground_force1_py	ground_force1_pz	ground_force2_vx	ground_force2_vy	ground_force2_vz	ground_force2_px	ground_force2_py	ground_force2_pz	ground_torque1_x	ground_torque1_y	ground_torque1_z	ground_torque2_x	ground_torque2_y	ground_torque2_z	
17.65828200000000	60.90836700000000	785.88022200000000	62.96745500000000	0.34651900000000	0.00000000000000	0.12055200000000	0.00000000000000	0.00000000000000	0.00000000000000	0.00000000000000	0.00000000000000	0.00000000000000	0.00000000000000	28.16976300000000	0.00000000000000	0.00000000000000	0.00000000000000	0.00000000000000	
17.65993900000000	60.31400900000000	788.06151100000000	63.06438100000000	0.34563100000000	0.00000000000000	0.12054300000000	0.00000000000000	0.00000000000000	0.00000000000000	0.00000000000000	0.00000000000000	0.00000000000000	0.00000000000000	28.22919000000000	0.00000000000000	0.00000000000000	0.00000000000000	0.00000000000000	
17.66161700000000	59.72100300000000	790.10511099999997	63.15059300000000	0.34475600000000	0.00000000000000	0.12053300000000	0.00000000000000	0.00000000000000	0.00000000000000	0.00000000000000	0.00000000000000	0.00000000000000	0.00000000000000	28.28227700000000	0.00000000000000	0.00000000000000	0.00000000000000	0.00000000000000	
17.66328200000000	59.12984100000000	792.01016600000003	63.22604700000000	0.34389500000000	0.00000000000000	0.12052300000000	0.00000000000000	0.00000000000000	0.00000000000000	0.00000000000000	0.00000000000000	0.00000000000000	0.00000000000000	28.32893600000000	0.00000000000000	0.00000000000000	0.00000000000000	0.00000000000000	
17.66493000000000	58.54095400000000	793.77597100000003	63.29067100000000	0.34304500000000	0.00000000000000	0.12051300000000	0.00000000000000	0.00000000000000	0.00000000000000	0.00000000000000	0.00000000000000	0.00000000000000	0.00000000000000	28.36906700000000	0.00000000000000	0.00000000000000	0.00000000000000	0.00000000000000	
17.66660000000000	57.95470800000000	795.40198199999998	63.34437400000000	0.34220700000000	0.00000000000000	0.12050200000000	0.00000000000000	0.00000000000000	0.00000000000000	0.00000000000000	0.00000000000000	0.00000000000000	0.00000000000000	28.40256100000000	0.00000000000000	0.00000000000000	0.00000000000000	0.00000000000000	
17.66826700000000	57.37140800000000	796.88782400000002	63.38704700000000	0.34137900000000	0.00000000000000	0.12049000000000	0.00000000000000	0.00000000000000	0.00000000000000	0.00000000000000	0.00000000000000	0.00000000000000	0.00000000000000	28.42930300000000	0.00000000000000	0.00000000000000	0.00000000000000	0.00000000000000	
17.66993600000000	56.79130000000000	798.23330199999998	63.41856600000000	0.34056000000000	0.00000000000000	0.12047800000000	0.00000000000000	0.00000000000000	0.00000000000000	0.00000000000000	0.00000000000000	0.00000000000000	0.00000000000000	28.44917300000000	0.00000000000000	0.00000000000000	0.00000000000000	0.00000000000000	
17.67162000000000	56.21457600000000	799.43840000000000	63.43879900000000	0.33974900000000	0.00000000000000	0.12046600000000	0.00000000000000	0.00000000000000	0.00000000000000	0.00000000000000	0.00000000000000	0.00000000000000	0.00000000000000	28.46204700000000	0.00000000000000	0.00000000000000	0.00000000000000	0.00000000000000	
17.67327900000000	55.64137400000000	800.50329799999997	63.44760300000000	0.33894400000000	0.00000000000000	0.12045300000000	0.00000000000000	0.00000000000000	0.00000000000000	0.00000000000000	0.00000000000000	0.00000000000000	0.00000000000000	28.46780400000000	0.00000000000000	0.00000000000000	0.00000000000000	0.00000000000000	
17.67493700000000	55.07178300000000	801.42836799999998	63.44483400000000	0.33814400000000	0.00000000000000	0.12044000000000	0.00000000000000	0.00000000000000	0.00000000000000	0.00000000000000	0.00000000000000	0.00000000000000	0.00000000000000	28.46632300000000	0.00000000000000	0.00000000000000	0.00000000000000	0.00000000000000	
17.67660200000000	54.50584700000000	802.21418300000005	63.43034900000000	0.33734700000000	0.00000000000000	0.12042600000000	0.00000000000000	0.00000000000000	0.00000000000000	0.00000000000000	0.00000000000000	0.00000000000000	0.00000000000000	28.45748700000000	0.00000000000000	0.00000000000000	0.00000000000000	0.00000000000000	
17.67826300000000	53.94356700000000	802.86152100000004	63.40400600000000	0.33655300000000	0.00000000000000	0.12041200000000	0.00000000000000	0.00000000000000	0.00000000000000	0.00000000000000	0.00000000000000	0.00000000000000	0.00000000000000	28.44118800000000	0.00000000000000	0.00000000000000	0.00000000000000	0.00000000000000	
17.67993700000000	53.38490600000000	803.37136399999997	63.36567100000000	0.33576000000000	0.00000000000000	0.12039700000000	0.00000000000000	0.00000000000000	0.00000000000000	0.00000000000000	0.00000000000000	0.00000000000000	0.00000000000000	28.41732400000000	0.00000000000000	0.00000000000000	0.00000000000000	0.00000000000000	
17.68160300000000	52.82979100000000	803.74490200000002	63.31522100000000	0.33496700000000	0.00000000000000	0.12038200000000	0.00000000000000	0.00000000000000	0.00000000000000	0.00000000000000	0.00000000000000	0.00000000000000	0.00000000000000	28.38580700000000	0.00000000000000	0.00000000000000	0.00000000000000	0.00000000000000	
17.68326700000000	52.27811700000000	803.98353399999996	63.25254600000000	0.33417200000000	0.00000000000000	0.12036600000000	0.00000000000000	0.00000000000000	0.00000000000000	0.00000000000000	0.00000000000000	0.00000000000000	0.00000000000000	28.34655800000000	0.00000000000000	0.00000000000000	0.00000000000000	0.00000000000000	
17.68493500000000	51.72975300000000	804.08886700000005	63.17755200000000	0.33337400000000	0.00000000000000	0.12035000000000	0.00000000000000	0.00000000000000	0.00000000000000	0.00000000000000	0.00000000000000	0.00000000000000	0.00000000000000	28.29951600000000	0.00000000000000	0.00000000000000	0.00000000000000	0.00000000000000	
17.68659600000000	51.18454200000000	804.06271300000003	63.09016500000000	0.33257200000000	0.00000000000000	0.12033400000000	0.00000000000000	0.00000000000000	0.00000000000000	0.00000000000000	0.00000000000000	0.00000000000000	0.00000000000000	28.24463500000000	0.00000000000000	0.00000000000000	0.00000000000000	0.00000000000000	
17.68826500000000	50.64230900000000	803.90709100000004	62.99033100000000	0.33176300000000	0.00000000000000	0.12031700000000	0.00000000000000	0.00000000000000	0.00000000000000	0.00000000000000	0.00000000000000	0.00000000000000	0.00000000000000	28.18188500000000	0.00000000000000	0.00000000000000	0.00000000000000	0.00000000000000	
17.68993800000000	50.10286000000000	803.62421900000004	62.87802200000000	0.33094800000000	0.00000000000000	0.12030000000000	0.00000000000000	0.00000000000000	0.00000000000000	0.00000000000000	0.00000000000000	0.00000000000000	0.00000000000000	28.11125700000000	0.00000000000000	0.00000000000000	0.00000000000000	0.00000000000000	
17.69161700000000	49.56599000000000	803.21651499999996	62.75323700000000	0.33012400000000	0.00000000000000	0.12028300000000	0.00000000000000	0.00000000000000	0.00000000000000	0.00000000000000	0.00000000000000	0.00000000000000	0.00000000000000	28.03276400000000	0.00000000000000	0.00000000000000	0.00000000000000	0.00000000000000	
17.69328100000000	49.03148400000000	802.68658700000003	62.61600000000000	0.32929000000000	0.00000000000000	0.12026500000000	0.00000000000000	0.00000000000000	0.00000000000000	0.00000000000000	0.00000000000000	0.00000000000000	0.00000000000000	27.94643800000000	0.00000000000000	0.00000000000000	0.00000000000000	0.00000000000000	
17.69493700000000	48.49911800000000	802.03723400000001	62.46636800000000	0.32844500000000	0.00000000000000	0.12024700000000	0.00000000000000	0.00000000000000	0.00000000000000	0.00000000000000	0.00000000000000	0.00000000000000	0.00000000000000	27.85233400000000	0.00000000000000	0.00000000000000	0.00000000000000	0.00000000000000	
17.69662100000000	47.96867000000000	801.27143500000000	62.30442700000000	0.32758900000000	0.00000000000000	0.12022800000000	0.00000000000000	0.00000000000000	0.00000000000000	0.00000000000000	0.00000000000000	0.00000000000000	0.00000000000000	27.75053100000000	0.00000000000000	0.00000000000000	0.00000000000000	0.00000000000000	
17.69828200000000	47.43991400000000	800.39234199999999	62.13029600000000	0.32671900000000	0.00000000000000	0.12021000000000	0.00000000000000	0.00000000000000	0.00000000000000	0.00000000000000	0.00000000000000	0.00000000000000	0.00000000000000	27.64113100000000	0.00000000000000	0.00000000000000	0.00000000000000	0.00000000000000	
17.69993000000000	46.91263000000000	799.40327600000001	61.94412600000000	0.32583600000000	0.00000000000000	0.12019100000000	0.00000000000000	0.00000000000000	0.00000000000000	0.00000000000000	0.00000000000000	0.00000000000000	0.00000000000000	27.52426000000000	0.00000000000000	0.00000000000000	0.00000000000000	0.00000000000000	
17.70162000000000	46.38660200000000	798.30771700000003	61.74610300000000	0.32493700000000	0.00000000000000	0.12017100000000	0.00000000000000	0.00000000000000	0.00000000000000	0.00000000000000	0.00000000000000	0.00000000000000	0.00000000000000	27.40006800000000	0.00000000000000	0.00000000000000	0.00000000000000	0.00000000000000	
17.70326500000000	45.86162400000000	797.10929399999998	61.53644400000000	0.32402200000000	0.00000000000000	0.12015200000000	0.00000000000000	0.00000000000000	0.00000000000000	0.00000000000000	0.00000000000000	0.00000000000000	0.00000000000000	27.26873000000000	0.00000000000000	0.00000000000000	0.00000000000000	0.00000000000000	
17.70493200000000	45.33750000000000	795.81177900000000	61.31540200000000	0.32309100000000	0.00000000000000	0.12013200000000	0.00000000000000	0.00000000000000	0.00000000000000	0.00000000000000	0.00000000000000	0.00000000000000	0.00000000000000	27.13044300000000	0.00000000000000	0.00000000000000	0.00000000000000	0.00000000000000	
17.70660600000000	44.81404900000000	794.41907400000002	61.08326100000000	0.32214200000000	0.00000000000000	0.12011300000000	0.00000000000000	0.00000000000000	0.00000000000000	0.00000000000000	0.00000000000000	0.00000000000000	0.00000000000000	26.98543000000000	0.00000000000000	0.00000000000000	0.00000000000000	0.00000000000000	
17.70826800000000	44.29110400000000	792.93520500000000	60.84033900000000	0.32117500000000	0.00000000000000	0.12009300000000	0.00000000000000	0.00000000000000	0.00000000000000	0.00000000000000	0.00000000000000	0.00000000000000	0.00000000000000	26.83393400000000	0.00000000000000	0.00000000000000	0.00000000000000	0.00000000000000	
17.70993400000000	43.76851600000000	791.36430600000006	60.58698400000000	0.32019000000000	0.00000000000000	0.12007300000000	0.00000000000000	0.00000000000000	0.00000000000000	0.00000000000000	0.00000000000000	0.00000000000000	0.00000000000000	26.67622300000000	0.00000000000000	0.00000000000000	0.00000000000000	0.00000000000000	
17.71161900000000	43.24615400000000	789.71061699999996	60.32357700000000	0.31918600000000	0.00000000000000	0.12005200000000	0.00000000000000	0.00000000000000	0.00000000000000	0.00000000000000	0.00000000000000	0.00000000000000	0.00000000000000	26.51258300000000	0.00000000000000	0.00000000000000	0.00000000000000	0.00000000000000	
